HIERARCHY
ROOT Hips
{
  OFFSET 59.9122 92.5874 6.24043
  CHANNELS 6 Xposition Yposition Zposition Zrotation Xrotation Yrotation
  JOINT spine
  {
    OFFSET 0 7.4756 0.429885
    CHANNELS 3 Zrotation Xrotation Yrotation
    JOINT spine1
    {
      OFFSET 0 9.92301 0
      CHANNELS 3 Zrotation Xrotation Yrotation
      JOINT spine2
      {
        OFFSET 0 9.50804 0
        CHANNELS 3 Zrotation Xrotation Yrotation
        JOINT Neck
        {
          OFFSET 0 24.4111 1.16384
          CHANNELS 3 Zrotation Xrotation Yrotation
          JOINT Head
          {
            OFFSET 0 7.37523 0
            CHANNELS 3 Zrotation Xrotation Yrotation
            End Site
            {
              OFFSET 0 17.8522 -5.88741
            }
          }
        }
        JOINT RightShoulder
        {
          OFFSET -4.00356 10.2679 -0.557468
          CHANNELS 3 Zrotation Xrotation Yrotation
          JOINT RightArm
          {
            OFFSET 0 13.4673 0
            CHANNELS 3 Zrotation Xrotation Yrotation
            JOINT RightArmRoll
            {
              OFFSET 0 6.79858 0
              CHANNELS 3 Zrotation Xrotation Yrotation
              JOINT RightForeArm
              {
                OFFSET 0 19.8018 0
                CHANNELS 3 Zrotation Xrotation Yrotation
                JOINT RightForeArmRoll
                {
                  OFFSET 0 7.62905 0
                  CHANNELS 3 Zrotation Xrotation Yrotation
                  JOINT RightHand
                  {
                    OFFSET 0 15.3098 0
                    CHANNELS 3 Zrotation Xrotation Yrotation
                    End Site
                    {
                      OFFSET 0 0 0
                    }
                  }
                }
              }
            }
          }
        }
        JOINT LeftShoulder
        {
          OFFSET 4.00356 10.2679 -0.557468
          CHANNELS 3 Zrotation Xrotation Yrotation
          JOINT LeftArm
          {
            OFFSET 0 13.4673 0
            CHANNELS 3 Zrotation Xrotation Yrotation
            JOINT LeftArmRoll
            {
              OFFSET 0 6.79858 0
              CHANNELS 3 Zrotation Xrotation Yrotation
              JOINT LeftForeArm
              {
                OFFSET 0 19.8018 0
                CHANNELS 3 Zrotation Xrotation Yrotation
                JOINT LeftForeArmRoll
                {
                  OFFSET 0 7.62906 0
                  CHANNELS 3 Zrotation Xrotation Yrotation
                  JOINT LeftHand
                  {
                    OFFSET 0 15.3098 0
                    CHANNELS 3 Zrotation Xrotation Yrotation
                    End Site
                    {
                      OFFSET 0 0 0
                    }
                  }
                }
              }
            }
          }
        }
      }
    }
  }
  JOINT RightUpLeg
  {
    OFFSET -6.62609 -1.21505 -1.01927
    CHANNELS 3 Zrotation Xrotation Yrotation
    JOINT RightUpLegRoll
    {
      OFFSET 0 17.9517 0
      CHANNELS 3 Zrotation Xrotation Yrotation
      JOINT RightLeg
      {
        OFFSET 0 -22.2304 0
        CHANNELS 3 Zrotation Xrotation Yrotation
        JOINT RightLegRoll
        {
          OFFSET 0 22.3032 0
          CHANNELS 3 Zrotation Xrotation Yrotation
          JOINT RightFoot
          {
            OFFSET 0 18.5636 0
            CHANNELS 3 Zrotation Xrotation Yrotation
            JOINT RightToeBase
            {
              OFFSET 0 15.5183 0
              CHANNELS 3 Zrotation Xrotation Yrotation
              End Site
              {
                OFFSET 0.00657761 7.51538 -0.866263
              }
            }
          }
        }
      }
    }
  }
  JOINT LeftUpLeg
  {
    OFFSET 6.62609 -1.21505 -1.01927
    CHANNELS 3 Zrotation Xrotation Yrotation
    JOINT LeftUpLegRoll
    {
      OFFSET 0 17.9518 0
      CHANNELS 3 Zrotation Xrotation Yrotation
      JOINT LeftLeg
      {
        OFFSET 0 22.2303 0
        CHANNELS 3 Zrotation Xrotation Yrotation
        JOINT LeftLegRoll
        {
          OFFSET 0 22.5093 0
          CHANNELS 3 Zrotation Xrotation Yrotation
          JOINT LeftFoot
          {
            OFFSET 0 18.3575 0
            CHANNELS 3 Zrotation Xrotation Yrotation
            JOINT LeftToeBase
            {
              OFFSET 0 15.5183 0
              CHANNELS 3 Zrotation Xrotation Yrotation
              End Site
              {
                OFFSET -0.029478 7.51538 -0.866263
              }
            }
          }
        }
      }
    }
  }
}
MOTION
Frames: 12
Frame Time: 0.00208333
59.4089 92.5445 5.74049 2.30718 -5.59552 0.261048 -0.198391 -1.5032 -0.130472 -0.400436 0.989114 -0.241175 -0.397742 2.63416 -0.234595 -17.2726 13.4424 4.50382 14.042 13.3725 -0.418945 1.52299 -14.8138 -14.5267 8.91012 26.9339 117.26 -6.97631e-008 3.65563e-007 -3.07154e-006 3.99507 55.716 0.547972 1.47858e-005 -1.29983e-006 -3.00093 8.03003 -4.95139 0.697654 -30.4283 -19.2484 15.9486 20.2275 29.6729 -99.4065 2.30083e-005 -1.30642e-006 8.51409e-006 7.9865 48.7716 -5.14292 1.18793e-006 -7.31459e-007 3.00796 -8.02959 -4.95141 -0.697659 172.977 9.23932 3.48493 180 7.01525e-015 178.833 179.101 26.6029 179.156 8.87516e-007 -1.14187e-006 0.462366 -18.9153 68.1963 19.6975 8.14735 27.6311 -0.257875 174.266 1.40559 5.48589 4.54188e-006 -4.6773e-006 -1.09222 -4.06036 -10.9034 -0.114297 -1.82391e-006 5.05547e-006 -0.148676 20.6281 70.0877 -21.4599 -8.13649 25.2327 3.48773 
59.4031 92.5421 5.73751 2.29752 -5.59574 0.243866 -0.196307 -1.5026 -0.132173 -0.396194 0.991377 -0.244613 -0.393449 2.63642 -0.238107 -17.2852 13.4347 4.50809 14.0244 13.3377 -0.412288 1.61673 -14.809 -14.5025 9.01237 27.0026 117.005 -6.97631e-008 3.65563e-007 -3.07154e-006 3.63357 55.3429 0.702586 1.47858e-005 -1.29983e-006 -3.00091 8.03003 -4.95139 0.697654 -30.4013 -19.246 15.9505 19.9973 29.7663 -99.2108 2.30083e-005 -1.30642e-006 8.51409e-006 8.05862 48.1941 -5.09014 1.18793e-006 -7.31459e-007 3.00797 -8.02959 -4.95141 -0.697659 172.988 9.24222 3.47601 180 7.01525e-015 178.833 179.103 26.5946 179.156 8.87516e-007 -1.14187e-006 0.462301 -18.9148 68.1954 19.6969 8.14764 27.6215 -0.270719 174.272 1.41279 5.48335 4.54188e-006 -4.6773e-006 -1.09249 -4.05944 -10.9118 -0.114311 -1.82391e-006 5.05547e-006 -0.148817 20.6349 70.0916 -21.4637 -8.13649 25.2327 3.48773 
59.402 92.5412 5.73574 2.28795 -5.59573 0.227081 -0.194143 -1.50214 -0.133847 -0.391824 0.99331 -0.24799 -0.389031 2.63836 -0.241559 -17.2978 13.4271 4.51223 14.0065 13.3023 -0.405726 1.71248 -14.8044 -14.4786 9.11069 27.0731 116.747 -6.97631e-008 3.65563e-007 -3.07154e-006 3.27548 54.9629 0.851871 1.47858e-005 -1.29983e-006 -3.0009 8.03003 -4.95139 0.697654 -30.3757 -19.2421 15.9504 19.7659 29.8601 -99.0195 2.30083e-005 -1.30642e-006 8.51409e-006 8.13128 47.6236 -5.03926 1.18793e-006 -7.31459e-007 3.00797 -8.02959 -4.95141 -0.697659 172.998 9.24535 3.46722 180 7.01525e-015 178.833 179.105 26.5867 179.156 8.87516e-007 -1.14187e-006 0.462237 -18.9143 68.1946 19.6963 8.14792 27.6121 -0.283305 174.278 1.42032 5.48077 4.54188e-006 -4.6773e-006 -1.09277 -4.05864 -10.9204 -0.114363 -1.82391e-006 5.05547e-006 -0.148969 20.6421 70.0958 -21.4676 -8.13649 25.2327 3.48773 
59.4038 92.5427 5.72894 2.2785 -5.59543 0.210731 -0.191881 -1.50183 -0.135487 -0.3873 0.994848 -0.251292 -0.384459 2.6399 -0.244938 -17.3107 13.4197 4.51633 13.9883 13.2664 -0.39927 1.80988 -14.8002 -14.4549 9.20522 27.1458 116.486 -6.97631e-008 3.65563e-007 -3.07154e-006 2.92172 54.5762 0.995279 1.47858e-005 -1.29983e-006 -3.00088 8.03003 -4.95139 0.697654 -30.352 -19.2362 15.9478 19.5346 29.9541 -98.8352 2.30083e-005 -1.30642e-006 8.51409e-006 8.20401 47.0652 -4.99079 1.18793e-006 -7.31459e-007 3.00798 -8.02959 -4.95141 -0.697659 173.009 9.24876 3.45861 180 7.01525e-015 178.833 179.107 26.5791 179.155 8.87516e-007 -1.14187e-006 0.462172 -18.9139 68.1939 19.6958 8.14821 27.6029 -0.295589 174.284 1.4282 5.47816 4.54188e-006 -4.6773e-006 -1.09308 -4.058 -10.9293 -0.11446 -1.82391e-006 5.05547e-006 -0.149132 20.6497 70.1001 -21.4719 -8.13649 25.2327 3.48773 
59.4026 92.5467 5.72624 2.26918 -5.5948 0.194856 -0.1895 -1.50169 -0.137085 -0.38259 0.995924 -0.254504 -0.379703 2.64097 -0.24823 -17.3245 13.4126 4.52051 13.9701 13.23 -0.392936 1.90856 -14.7961 -14.4315 9.29602 27.2212 116.223 -6.97631e-008 3.65563e-007 -3.07154e-006 2.57315 54.1829 1.13229 1.47858e-005 -1.29983e-006 -3.00087 8.03003 -4.95139 0.697654 -30.3306 -19.2279 15.9423 19.3044 30.0483 -98.6605 2.30083e-005 -1.30642e-006 8.51409e-006 8.27628 46.5238 -4.9452 1.18793e-006 -7.31459e-007 3.00799 -8.02959 -4.95141 -0.697659 173.019 9.25246 3.45019 180 7.01525e-015 178.833 179.109 26.5717 179.155 8.87516e-007 -1.14187e-006 0.462108 -18.9135 68.1931 19.6953 8.14851 27.5941 -0.307527 174.29 1.43646 5.47549 4.54188e-006 -4.6773e-006 -1.0934 -4.05755 -10.9384 -0.114608 -1.82391e-006 5.05547e-006 -0.149309 20.6578 70.1047 -21.4764 -8.13649 25.2327 3.48773 
59.4047 92.5429 5.72069 2.26003 -5.59377 0.179494 -0.186982 -1.50175 -0.138632 -0.377665 0.99647 -0.257613 -0.374735 2.64152 -0.251421 -17.3393 13.4059 4.52489 13.9521 13.1931 -0.386737 2.00816 -14.7923 -14.4084 9.38328 27.2998 115.958 -6.97631e-008 3.65563e-007 -3.07154e-006 2.23064 53.7831 1.2624 1.47858e-005 -1.29983e-006 -3.00086 8.03003 -4.95139 0.697654 -30.3121 -19.2168 15.9333 19.0766 30.1425 -98.4979 2.30083e-005 -1.30642e-006 8.51409e-006 8.34751 46.0047 -4.9029 1.18793e-006 -7.31459e-007 3.00799 -8.02959 -4.95141 -0.697659 173.028 9.25648 3.44199 180 7.01525e-015 178.833 179.111 26.5647 179.155 8.87516e-007 -1.14187e-006 0.462043 -18.9131 68.1925 19.6949 8.14883 27.5855 -0.319075 174.296 1.44513 5.47276 4.54188e-006 -4.6773e-006 -1.09375 -4.05732 -10.9477 -0.114813 -1.82391e-006 5.05547e-006 -0.149503 20.6662 70.1094 -21.4811 -8.13649 25.2327 3.48773 
59.4144 92.5397 5.71062 2.25108 -5.5923 0.164685 -0.184306 -1.50201 -0.140121 -0.372496 0.99642 -0.260604 -0.369524 2.64147 -0.254497 -17.3557 13.3996 4.52958 13.9346 13.1558 -0.380686 2.10833 -14.7888 -14.3859 9.46715 27.3819 115.691 -6.97631e-008 3.65563e-007 -3.07154e-006 1.89499 53.377 1.38516 1.47858e-005 -1.29983e-006 -3.00084 8.03003 -4.95139 0.697654 -30.2971 -19.2026 15.9202 18.8524 30.2368 -98.3502 2.30083e-005 -1.30642e-006 8.51409e-006 8.4171 45.5129 -4.86427 1.18793e-006 -7.31459e-007 3.008 -8.02959 -4.95141 -0.697659 173.038 9.26086 3.43404 180 7.01525e-015 178.833 179.113 26.558 179.155 8.87516e-007 -1.14187e-006 0.461979 -18.9128 68.1918 19.6945 8.14916 27.5772 -0.33019 174.301 1.45423 5.46995 4.54188e-006 -4.6773e-006 -1.09412 -4.05734 -10.9571 -0.115083 -1.82391e-006 5.05547e-006 -0.149715 20.6751 70.1143 -21.4861 -8.13649 25.2327 3.48773 
59.4147 92.5434 5.7065 2.24234 -5.59033 0.150468 -0.181453 -1.50249 -0.141543 -0.367053 0.995706 -0.263463 -0.364043 2.64076 -0.257446 -17.374 13.3939 4.53469 13.9178 13.1181 -0.374797 2.20871 -14.7854 -14.3638 9.54776 27.468 115.422 -6.97631e-008 3.65563e-007 -3.07154e-006 1.56698 52.9645 1.50011 1.47858e-005 -1.29983e-006 -3.00083 8.03003 -4.95139 0.697654 -30.2861 -19.1849 15.9028 18.6329 30.331 -98.2201 2.30083e-005 -1.30642e-006 8.51409e-006 8.48441 45.0535 -4.82966 1.18793e-006 -7.31459e-007 3.008 -8.02959 -4.95141 -0.697659 173.047 9.26561 3.42636 180 7.01525e-015 178.833 179.115 26.5516 179.154 8.87516e-007 -1.14187e-006 0.461915 -18.9124 68.1912 19.6941 8.14951 27.5693 -0.340828 174.307 1.46379 5.46706 4.54188e-006 -4.6773e-006 -1.09451 -4.05766 -10.9667 -0.115422 -1.82391e-006 5.05547e-006 -0.149947 20.6843 70.1193 -21.4913 -8.13649 25.2327 3.48773 
59.4169 92.5443 5.705 2.2337 -5.58786 0.136904 -0.17825 -1.5033 -0.142879 -0.361061 0.994111 -0.266136 -0.358015 2.63916 -0.260216 -17.3968 13.3921 4.54096 13.904 13.0763 -0.36914 2.30755 -14.7814 -14.341 9.62847 27.5571 115.149 -6.97631e-008 3.65563e-007 -3.07154e-006 1.24281 52.5455 1.60973 1.47858e-005 -1.29983e-006 -3.00081 8.03003 -4.95139 0.697654 -30.2803 -19.1625 15.8794 18.4174 30.4255 -98.1073 2.30083e-005 -1.30642e-006 8.51409e-006 8.55005 44.6272 -4.79947 1.18793e-006 -7.31459e-007 3.00801 -8.02959 -4.95141 -0.697659 173.056 9.27085 3.41883 180 7.01525e-015 178.833 179.117 26.5458 179.154 8.87516e-007 -1.14187e-006 0.461852 -18.9122 68.1906 19.6937 8.14989 27.5617 -0.351029 174.313 1.47399 5.46398 4.54188e-006 -4.6773e-006 -1.09492 -4.0583 -10.9768 -0.11585 -1.82391e-006 5.05547e-006 -0.150203 20.6942 70.1246 -21.4969 -8.13649 25.2327 3.48773 
59.4191 92.5407 5.69859 2.22504 -5.58494 0.123994 -0.17459 -1.5045 -0.144127 -0.35435 0.991549 -0.268601 -0.351272 2.6366 -0.262787 -17.4257 13.3964 4.54879 13.8946 13.028 -0.363748 2.40399 -14.7761 -14.3165 9.71173 27.6477 114.868 -6.97631e-008 3.65563e-007 -3.07154e-006 0.91859 52.1195 1.71651 1.47858e-005 -1.29983e-006 -3.0008 8.03003 -4.95139 0.697654 -30.28 -19.1351 15.8496 18.2037 30.5205 -98.0091 2.30083e-005 -1.30642e-006 8.51409e-006 8.61491 44.2287 -4.7733 1.18793e-006 -7.31459e-007 3.00801 -8.02959 -4.95141 -0.697659 173.065 9.27663 3.41133 180 7.01525e-015 178.833 179.119 26.5406 179.154 8.87516e-007 -1.14187e-006 0.461788 -18.912 68.1902 19.6935 8.1503 27.5545 -0.36087 174.319 1.48494 5.46066 4.54188e-006 -4.6773e-006 -1.09537 -4.05927 -10.9876 -0.116375 -1.82391e-006 5.05547e-006 -0.150482 20.7048 70.1302 -21.5028 -8.13649 25.2327 3.48773 
59.4246 92.5368 5.69457 2.21639 -5.5816 0.111685 -0.170559 -1.50602 -0.145299 -0.347054 0.988158 -0.270889 -0.343946 2.63321 -0.26519 -17.4593 13.4056 4.5578 13.8884 12.9744 -0.358586 2.49899 -14.7698 -14.2907 9.79618 27.7397 114.581 -6.97631e-008 3.65563e-007 -3.07154e-006 0.595017 51.6867 1.82006 1.47858e-005 -1.29983e-006 -3.00079 8.03003 -4.95139 0.697654 -30.2842 -19.1033 15.8144 17.9915 30.6163 -97.9237 2.30083e-005 -1.30642e-006 8.51409e-006 8.67882 43.8539 -4.75032 1.18793e-006 -7.31459e-007 3.00802 -8.02959 -4.95141 -0.697659 173.073 9.28288 3.4039 180 7.01525e-015 178.833 179.121 26.5359 179.153 8.87516e-007 -1.14187e-006 0.461724 -18.9119 68.1898 19.6933 8.15072 27.5475 -0.370369 174.325 1.49654 5.45715 4.54188e-006 -4.6773e-006 -1.09584 -4.06052 -10.9991 -0.116984 -1.82391e-006 5.05547e-006 -0.150781 20.7161 70.1361 -21.5091 -8.13649 25.2327 3.48773 
59.4275 92.5418 5.68924 2.20778 -5.57789 0.0999238 -0.166241 -1.50783 -0.146408 -0.339305 0.984075 -0.273031 -0.336169 2.62913 -0.267454 -17.4964 13.4182 4.56763 13.8845 12.9169 -0.353615 2.59351 -14.7629 -14.2641 9.8805 27.833 114.289 -6.97631e-008 3.65563e-007 -3.07154e-006 0.272743 51.2472 1.91998 1.47858e-005 -1.29983e-006 -3.00077 8.03003 -4.95139 0.697654 -30.2922 -19.068 15.7747 17.7805 30.7132 -97.8492 2.30083e-005 -1.30642e-006 8.51409e-006 8.7417 43.499 -4.72978 1.18793e-006 -7.31459e-007 3.00802 -8.02959 -4.95141 -0.697659 173.082 9.28954 3.39656 180 7.01525e-015 178.833 179.123 26.5318 179.153 8.87516e-007 -1.14187e-006 0.461661 -18.9119 68.1895 19.6933 8.15115 27.5407 -0.379543 174.33 1.50871 5.45348 4.54188e-006 -4.6773e-006 -1.09634 -4.06202 -11.0112 -0.117664 -1.82391e-006 5.05547e-006 -0.151097 20.728 70.1423 -21.5158 -8.13649 25.2327 3.48773 
